# xmcd
#
# Track frame offsets:
#	150
#	17347
#	37967
#	52852
#	74890
#	91757
#	124132
#	160235
#	184912
#	202475
#	232875
#
# Disc length: 3416 seconds
#
# Revision: 0
# Processed by: cddbd v1.5.1PL0 Copyright (c) Steve Scherf et al.
# Submitted via: dBpowerAMP V4.0
#
DISCID=910d560b
DTITLE=Mojo and the boogieman - Keep it in your Soul
DYEAR=1999
DGENRE=Blues
TTITLE0=Gypsy Blues -MATB
TTITLE1=Come Home Baby  - MATB
TTITLE2=Mean Lovin' Woman - MATB
TTITLE3=I'd Never be the Same Without You - MATB
TTITLE4=Voodoo -MATB
TTITLE5=Spirit in the Sky (Norman Greenbaum) - MATB
TTITLE6=Pourin' Rain - MATB
TTITLE7=Angel Blues - MATB
TTITLE8=Precious Time - MATB
TTITLE9=Mustang Sally (Sir Mack Rice) - MATB
TTITLE10=Get this Way - MATB
EXTD=
EXTT0=
EXTT1=
EXTT2=
EXTT3=
EXTT4=
EXTT5=
EXTT6=
EXTT7=
EXTT8=
EXTT9=
EXTT10=
PLAYORDER=
